<svg xmlns="http://www.w3.org/2000/svg" viewBox="0 0 301.46 301.87"><defs><style>.cls-1{fill:#60af46;}.cls-2{fill:#ec6e84;}.cls-3{fill:#d6454c;}.cls-4{fill:#d33639;}</style></defs><title>Asset 11</title><g id="Layer_2" data-name="Layer 2"><g id="_1" data-name="1"><path class="cls-1" d="M127.66,183.38c32.3-33.18,58.67-60.48,58.67-60.48l-8.76-11.68s-13.2,13.26-32.36,32.55c13.53-32.09-18-52.27-18-52.27-19.41,32.35-4.36,58.87,2.32,68.07-17.82,18-38.41,38.74-57.81,58.39,9.59-25.13,18.78-66.53-15.34-84-14-7.13-49.6,72.17-1.23,100.75-28.92,29.36-52,53-53.53,55.35-4.38,6.58.73,15.34,9.49,10.23,4.54-2.65,51.38-50.14,95.48-95.32,32,52.21,99.48-3.5,99.48-3.5C176.45,176.83,147.53,177.72,127.66,183.38Z"/><path class="cls-2" d="M236.35,1c-15.56,4.79-64.62,49.29-71.19,75.57s21.9,73.39,57,60.24S295.5,80.92,301,63.39,264.83-7.8,236.35,1Z"/><path class="cls-3" d="M232,9.51c-7.81,8.43-2,29.19,18.66,48.87s29.52,18.7,40.64,8.82S264,11.55,253.29,9.51s0,8.83,12.66,21,22.65,23.08,16,29.87S251.29,48.88,244,36,236,5.2,232,9.51Z"/><path class="cls-4" d="M251.69,26.7c-5.48,3.83,6.57,23.55,15.33,21.36S257.16,22.87,251.69,26.7Z"/></g></g></svg>